<svg width="1107" height="30" viewBox="0 0 1107 30" fill="none" xmlns="http://www.w3.org/2000/svg">
<path d="M6.62 13.79C8.06 16.62 10.38 18.93 13.21 20.38L15.41 18.18C15.68 17.91 16.08 17.82 16.43 17.94C17.55 18.31 18.76 18.51 20 18.51C20.55 18.51 21 18.96 21 19.51V23C21 23.55 20.55 24 20 24C10.61 24 3 16.39 3 7C3 6.45 3.45 6 4 6H7.5C8.05 6 8.5 6.45 8.5 7C8.5 8.25 8.7 9.45 9.07 10.57C9.18 10.92 9.1 11.31 8.82 11.59L6.62 13.79Z" fill="black"/>
<path d="M38.5801 19.9395V16.2188H34.8301V13.6504H38.5801V9.92969H41.0801V13.6504H44.8398V16.2188H41.0801V19.9395H38.5801ZM46.5879 18.6895L49.2441 18.3965C49.3092 18.9368 49.4785 19.3372 49.752 19.5977C50.0254 19.8581 50.3867 19.9883 50.8359 19.9883C51.4023 19.9883 51.8841 19.7279 52.2812 19.207C52.6784 18.6862 52.9323 17.6055 53.043 15.9648C52.3529 16.7656 51.4902 17.166 50.4551 17.166C49.3288 17.166 48.3555 16.7331 47.5352 15.8672C46.7214 14.9948 46.3145 13.862 46.3145 12.4688C46.3145 11.0169 46.7441 9.84831 47.6035 8.96289C48.4694 8.07096 49.5697 7.625 50.9043 7.625C52.3561 7.625 53.5475 8.18815 54.4785 9.31445C55.4095 10.4342 55.875 12.2799 55.875 14.8516C55.875 17.4688 55.39 19.3568 54.4199 20.5156C53.4499 21.6745 52.1868 22.2539 50.6309 22.2539C49.5111 22.2539 48.6061 21.9577 47.916 21.3652C47.2259 20.7663 46.7832 19.8743 46.5879 18.6895ZM52.7988 12.6934C52.7988 11.8079 52.5938 11.1211 52.1836 10.6328C51.7799 10.1445 51.3112 9.90039 50.7773 9.90039C50.2695 9.90039 49.8464 10.1022 49.5078 10.5059C49.1758 10.903 49.0098 11.5573 49.0098 12.4688C49.0098 13.3932 49.1921 14.0736 49.5566 14.5098C49.9212 14.9395 50.377 15.1543 50.9238 15.1543C51.4512 15.1543 51.8939 14.946 52.252 14.5293C52.6165 14.1126 52.7988 13.5007 52.7988 12.6934ZM64.6836 22H61.9395V11.6582C60.9368 12.5957 59.7552 13.2891 58.3945 13.7383V11.248C59.1107 11.0137 59.8887 10.571 60.7285 9.91992C61.5684 9.26237 62.1445 8.4974 62.457 7.625H64.6836V22ZM68.8535 18.6895L71.5098 18.3965C71.5749 18.9368 71.7441 19.3372 72.0176 19.5977C72.291 19.8581 72.6523 19.9883 73.1016 19.9883C73.668 19.9883 74.1497 19.7279 74.5469 19.207C74.944 18.6862 75.1979 17.6055 75.3086 15.9648C74.6185 16.7656 73.7559 17.166 72.7207 17.166C71.5944 17.166 70.6211 16.7331 69.8008 15.8672C68.987 14.9948 68.5801 13.862 68.5801 12.4688C68.5801 11.0169 69.0098 9.84831 69.8691 8.96289C70.735 8.07096 71.8353 7.625 73.1699 7.625C74.6217 7.625 75.8132 8.18815 76.7441 9.31445C77.6751 10.4342 78.1406 12.2799 78.1406 14.8516C78.1406 17.4688 77.6556 19.3568 76.6855 20.5156C75.7155 21.6745 74.4525 22.2539 72.8965 22.2539C71.7767 22.2539 70.8717 21.9577 70.1816 21.3652C69.4915 20.7663 69.0488 19.8743 68.8535 18.6895ZM75.0645 12.6934C75.0645 11.8079 74.8594 11.1211 74.4492 10.6328C74.0456 10.1445 73.5768 9.90039 73.043 9.90039C72.5352 9.90039 72.112 10.1022 71.7734 10.5059C71.4414 10.903 71.2754 11.5573 71.2754 12.4688C71.2754 13.3932 71.4577 14.0736 71.8223 14.5098C72.1868 14.9395 72.6426 15.1543 73.1895 15.1543C73.7168 15.1543 74.1595 14.946 74.5176 14.5293C74.8822 14.1126 75.0645 13.5007 75.0645 12.6934ZM79.9863 18.6895L82.6426 18.3965C82.7077 18.9368 82.877 19.3372 83.1504 19.5977C83.4238 19.8581 83.7852 19.9883 84.2344 19.9883C84.8008 19.9883 85.2826 19.7279 85.6797 19.207C86.0768 18.6862 86.3307 17.6055 86.4414 15.9648C85.7513 16.7656 84.8887 17.166 83.8535 17.166C82.7272 17.166 81.7539 16.7331 80.9336 15.8672C80.1198 14.9948 79.7129 13.862 79.7129 12.4688C79.7129 11.0169 80.1426 9.84831 81.002 8.96289C81.8678 8.07096 82.9681 7.625 84.3027 7.625C85.7546 7.625 86.946 8.18815 87.877 9.31445C88.8079 10.4342 89.2734 12.2799 89.2734 14.8516C89.2734 17.4688 88.7884 19.3568 87.8184 20.5156C86.8483 21.6745 85.5853 22.2539 84.0293 22.2539C82.9095 22.2539 82.0046 21.9577 81.3145 21.3652C80.6243 20.7663 80.1816 19.8743 79.9863 18.6895ZM86.1973 12.6934C86.1973 11.8079 85.9922 11.1211 85.582 10.6328C85.1784 10.1445 84.7096 9.90039 84.1758 9.90039C83.668 9.90039 83.2448 10.1022 82.9062 10.5059C82.5742 10.903 82.4082 11.5573 82.4082 12.4688C82.4082 13.3932 82.5905 14.0736 82.9551 14.5098C83.3197 14.9395 83.7754 15.1543 84.3223 15.1543C84.8496 15.1543 85.2923 14.946 85.6504 14.5293C86.015 14.1126 86.1973 13.5007 86.1973 12.6934ZM91.1191 18.6895L93.7754 18.3965C93.8405 18.9368 94.0098 19.3372 94.2832 19.5977C94.5566 19.8581 94.918 19.9883 95.3672 19.9883C95.9336 19.9883 96.4154 19.7279 96.8125 19.207C97.2096 18.6862 97.4635 17.6055 97.5742 15.9648C96.8841 16.7656 96.0215 17.166 94.9863 17.166C93.86 17.166 92.8867 16.7331 92.0664 15.8672C91.2526 14.9948 90.8457 13.862 90.8457 12.4688C90.8457 11.0169 91.2754 9.84831 92.1348 8.96289C93.0007 8.07096 94.1009 7.625 95.4355 7.625C96.8874 7.625 98.0788 8.18815 99.0098 9.31445C99.9408 10.4342 100.406 12.2799 100.406 14.8516C100.406 17.4688 99.9212 19.3568 98.9512 20.5156C97.9811 21.6745 96.7181 22.2539 95.1621 22.2539C94.0423 22.2539 93.1374 21.9577 92.4473 21.3652C91.7572 20.7663 91.3145 19.8743 91.1191 18.6895ZM97.3301 12.6934C97.3301 11.8079 97.125 11.1211 96.7148 10.6328C96.3112 10.1445 95.8424 9.90039 95.3086 9.90039C94.8008 9.90039 94.3776 10.1022 94.0391 10.5059C93.707 10.903 93.541 11.5573 93.541 12.4688C93.541 13.3932 93.7233 14.0736 94.0879 14.5098C94.4525 14.9395 94.9082 15.1543 95.4551 15.1543C95.9824 15.1543 96.4251 14.946 96.7832 14.5293C97.1478 14.1126 97.3301 13.5007 97.3301 12.6934ZM106.832 7.625C108.219 7.625 109.303 8.11979 110.084 9.10938C111.015 10.2812 111.48 12.2246 111.48 14.9395C111.48 17.6478 111.012 19.5944 110.074 20.7793C109.299 21.7559 108.219 22.2441 106.832 22.2441C105.439 22.2441 104.316 21.7103 103.463 20.6426C102.61 19.5684 102.184 17.6576 102.184 14.9102C102.184 12.2148 102.652 10.2747 103.59 9.08984C104.365 8.11328 105.445 7.625 106.832 7.625ZM106.832 9.90039C106.5 9.90039 106.204 10.0078 105.943 10.2227C105.683 10.431 105.481 10.8086 105.338 11.3555C105.149 12.0651 105.055 13.2598 105.055 14.9395C105.055 16.6191 105.139 17.7747 105.309 18.4062C105.478 19.0312 105.689 19.4479 105.943 19.6562C106.204 19.8646 106.5 19.9688 106.832 19.9688C107.164 19.9688 107.46 19.8646 107.721 19.6562C107.981 19.4414 108.183 19.0605 108.326 18.5137C108.515 17.8105 108.609 16.6191 108.609 14.9395C108.609 13.2598 108.525 12.1074 108.355 11.4824C108.186 10.8509 107.971 10.431 107.711 10.2227C107.457 10.0078 107.164 9.90039 106.832 9.90039ZM120.348 22H117.604V11.6582C116.601 12.5957 115.419 13.2891 114.059 13.7383V11.248C114.775 11.0137 115.553 10.571 116.393 9.91992C117.232 9.26237 117.809 8.4974 118.121 7.625H120.348V22ZM129.098 7.625C130.484 7.625 131.568 8.11979 132.35 9.10938C133.281 10.2812 133.746 12.2246 133.746 14.9395C133.746 17.6478 133.277 19.5944 132.34 20.7793C131.565 21.7559 130.484 22.2441 129.098 22.2441C127.704 22.2441 126.581 21.7103 125.729 20.6426C124.876 19.5684 124.449 17.6576 124.449 14.9102C124.449 12.2148 124.918 10.2747 125.855 9.08984C126.63 8.11328 127.711 7.625 129.098 7.625ZM129.098 9.90039C128.766 9.90039 128.469 10.0078 128.209 10.2227C127.949 10.431 127.747 10.8086 127.604 11.3555C127.415 12.0651 127.32 13.2598 127.32 14.9395C127.32 16.6191 127.405 17.7747 127.574 18.4062C127.743 19.0312 127.955 19.4479 128.209 19.6562C128.469 19.8646 128.766 19.9688 129.098 19.9688C129.43 19.9688 129.726 19.8646 129.986 19.6562C130.247 19.4414 130.449 19.0605 130.592 18.5137C130.781 17.8105 130.875 16.6191 130.875 14.9395C130.875 13.2598 130.79 12.1074 130.621 11.4824C130.452 10.8509 130.237 10.431 129.977 10.2227C129.723 10.0078 129.43 9.90039 129.098 9.90039ZM135.494 18.2012L138.15 17.8789C138.235 18.556 138.463 19.0736 138.834 19.4316C139.205 19.7897 139.654 19.9688 140.182 19.9688C140.748 19.9688 141.223 19.7539 141.607 19.3242C141.998 18.8945 142.193 18.3151 142.193 17.5859C142.193 16.8958 142.008 16.349 141.637 15.9453C141.266 15.5417 140.813 15.3398 140.279 15.3398C139.928 15.3398 139.508 15.4082 139.02 15.5449L139.322 13.3086C140.064 13.3281 140.631 13.1686 141.021 12.8301C141.412 12.485 141.607 12.0293 141.607 11.4629C141.607 10.9811 141.464 10.597 141.178 10.3105C140.891 10.0241 140.51 9.88086 140.035 9.88086C139.566 9.88086 139.166 10.0436 138.834 10.3691C138.502 10.6947 138.3 11.1699 138.229 11.7949L135.699 11.3652C135.875 10.4993 136.139 9.80924 136.49 9.29492C136.848 8.77409 137.343 8.36719 137.975 8.07422C138.613 7.77474 139.326 7.625 140.113 7.625C141.461 7.625 142.542 8.05469 143.355 8.91406C144.026 9.61719 144.361 10.4115 144.361 11.2969C144.361 12.5534 143.674 13.556 142.301 14.3047C143.121 14.4805 143.775 14.8743 144.264 15.4863C144.758 16.0983 145.006 16.8372 145.006 17.7031C145.006 18.9596 144.547 20.0306 143.629 20.916C142.711 21.8014 141.568 22.2441 140.201 22.2441C138.906 22.2441 137.831 21.873 136.979 21.1309C136.126 20.3822 135.631 19.4056 135.494 18.2012ZM156.021 11.1895L153.365 11.4824C153.3 10.9355 153.131 10.5319 152.857 10.2715C152.584 10.0111 152.229 9.88086 151.793 9.88086C151.214 9.88086 150.722 10.1413 150.318 10.6621C149.921 11.1829 149.671 12.2669 149.566 13.9141C150.25 13.1068 151.1 12.7031 152.115 12.7031C153.261 12.7031 154.241 13.1393 155.055 14.0117C155.875 14.8841 156.285 16.0104 156.285 17.3906C156.285 18.8555 155.855 20.0306 154.996 20.916C154.137 21.8014 153.033 22.2441 151.686 22.2441C150.24 22.2441 149.052 21.6842 148.121 20.5645C147.19 19.4382 146.725 17.5957 146.725 15.0371C146.725 12.4134 147.21 10.5221 148.18 9.36328C149.15 8.20443 150.41 7.625 151.959 7.625C153.046 7.625 153.945 7.93099 154.654 8.54297C155.37 9.14844 155.826 10.0306 156.021 11.1895ZM149.801 17.1758C149.801 18.0677 150.006 18.7578 150.416 19.2461C150.826 19.7279 151.295 19.9688 151.822 19.9688C152.33 19.9688 152.753 19.7702 153.092 19.373C153.43 18.9759 153.6 18.3249 153.6 17.4199C153.6 16.4889 153.417 15.8086 153.053 15.3789C152.688 14.9427 152.232 14.7246 151.686 14.7246C151.158 14.7246 150.712 14.9329 150.348 15.3496C149.983 15.7598 149.801 16.3685 149.801 17.1758ZM160.211 14.2754C159.501 13.9759 158.984 13.5658 158.658 13.0449C158.339 12.5176 158.18 11.9414 158.18 11.3164C158.18 10.2487 158.551 9.36654 159.293 8.66992C160.042 7.97331 161.103 7.625 162.477 7.625C163.837 7.625 164.892 7.97331 165.641 8.66992C166.396 9.36654 166.773 10.2487 166.773 11.3164C166.773 11.9805 166.601 12.5729 166.256 13.0938C165.911 13.6081 165.426 14.002 164.801 14.2754C165.595 14.5944 166.197 15.0599 166.607 15.6719C167.024 16.2839 167.232 16.9902 167.232 17.791C167.232 19.1126 166.809 20.1868 165.963 21.0137C165.123 21.8405 164.003 22.2539 162.604 22.2539C161.301 22.2539 160.217 21.9121 159.352 21.2285C158.329 20.4212 157.818 19.3145 157.818 17.9082C157.818 17.1335 158.01 16.4238 158.395 15.7793C158.779 15.1283 159.384 14.627 160.211 14.2754ZM160.777 11.5117C160.777 12.0586 160.93 12.485 161.236 12.791C161.549 13.097 161.962 13.25 162.477 13.25C162.997 13.25 163.414 13.097 163.727 12.791C164.039 12.4785 164.195 12.0488 164.195 11.502C164.195 10.9876 164.039 10.5775 163.727 10.2715C163.421 9.95898 163.014 9.80273 162.506 9.80273C161.979 9.80273 161.559 9.95898 161.246 10.2715C160.934 10.584 160.777 10.9974 160.777 11.5117ZM160.523 17.6445C160.523 18.3997 160.715 18.9889 161.1 19.4121C161.49 19.8353 161.975 20.0469 162.555 20.0469C163.121 20.0469 163.59 19.8451 163.961 19.4414C164.332 19.0312 164.518 18.4421 164.518 17.6738C164.518 17.0033 164.329 16.4661 163.951 16.0625C163.574 15.6523 163.095 15.4473 162.516 15.4473C161.845 15.4473 161.344 15.6784 161.012 16.1406C160.686 16.6029 160.523 17.1042 160.523 17.6445ZM168.893 18.2012L171.549 17.8789C171.633 18.556 171.861 19.0736 172.232 19.4316C172.604 19.7897 173.053 19.9688 173.58 19.9688C174.146 19.9688 174.622 19.7539 175.006 19.3242C175.396 18.8945 175.592 18.3151 175.592 17.5859C175.592 16.8958 175.406 16.349 175.035 15.9453C174.664 15.5417 174.212 15.3398 173.678 15.3398C173.326 15.3398 172.906 15.4082 172.418 15.5449L172.721 13.3086C173.463 13.3281 174.029 13.1686 174.42 12.8301C174.811 12.485 175.006 12.0293 175.006 11.4629C175.006 10.9811 174.863 10.597 174.576 10.3105C174.29 10.0241 173.909 9.88086 173.434 9.88086C172.965 9.88086 172.564 10.0436 172.232 10.3691C171.9 10.6947 171.699 11.1699 171.627 11.7949L169.098 11.3652C169.273 10.4993 169.537 9.80924 169.889 9.29492C170.247 8.77409 170.742 8.36719 171.373 8.07422C172.011 7.77474 172.724 7.625 173.512 7.625C174.859 7.625 175.94 8.05469 176.754 8.91406C177.424 9.61719 177.76 10.4115 177.76 11.2969C177.76 12.5534 177.073 13.556 175.699 14.3047C176.52 14.4805 177.174 14.8743 177.662 15.4863C178.157 16.0983 178.404 16.8372 178.404 17.7031C178.404 18.9596 177.945 20.0306 177.027 20.916C176.109 21.8014 174.967 22.2441 173.6 22.2441C172.304 22.2441 171.23 21.873 170.377 21.1309C169.524 20.3822 169.029 19.4056 168.893 18.2012Z" fill="black"/>
<path d="M288 23C287.45 23 286.979 22.8043 286.588 22.413C286.197 22.0217 286.001 21.5507 286 21V9C286 8.45 286.196 7.97933 286.588 7.588C286.98 7.19667 287.451 7.00067 288 7H304C304.55 7 305.021 7.196 305.413 7.588C305.805 7.98 306.001 8.45067 306 9V21C306 21.55 305.804 22.021 305.413 22.413C305.022 22.805 304.551 23.0007 304 23H288ZM296 16L304 11V9L296 14L288 9V11L296 16Z" fill="black"/>
<path d="M319.494 22V7.68359H322.385V14.041L328.225 7.68359H332.111L326.721 13.2598L332.404 22H328.664L324.729 15.2812L322.385 17.6738V22H319.494ZM333.889 10.2227V7.68359H336.633V10.2227H333.889ZM333.889 22V11.6289H336.633V22H333.889ZM338.488 19.041L341.242 18.6211C341.359 19.1549 341.597 19.5618 341.955 19.8418C342.313 20.1152 342.814 20.252 343.459 20.252C344.169 20.252 344.702 20.1217 345.061 19.8613C345.301 19.679 345.422 19.4349 345.422 19.1289C345.422 18.9206 345.357 18.748 345.227 18.6113C345.09 18.4811 344.784 18.3607 344.309 18.25C342.095 17.7617 340.692 17.3158 340.1 16.9121C339.279 16.3522 338.869 15.5742 338.869 14.5781C338.869 13.6797 339.224 12.9245 339.934 12.3125C340.643 11.7005 341.743 11.3945 343.234 11.3945C344.654 11.3945 345.708 11.6257 346.398 12.0879C347.089 12.5501 347.564 13.2337 347.824 14.1387L345.236 14.6172C345.126 14.2135 344.914 13.9043 344.602 13.6895C344.296 13.4746 343.856 13.3672 343.283 13.3672C342.561 13.3672 342.043 13.4681 341.73 13.6699C341.522 13.8132 341.418 13.9987 341.418 14.2266C341.418 14.4219 341.509 14.5879 341.691 14.7246C341.939 14.9069 342.792 15.1641 344.25 15.4961C345.715 15.8281 346.737 16.235 347.316 16.7168C347.889 17.2051 348.176 17.8854 348.176 18.7578C348.176 19.7083 347.779 20.5254 346.984 21.209C346.19 21.8926 345.015 22.2344 343.459 22.2344C342.046 22.2344 340.926 21.9479 340.1 21.375C339.279 20.8021 338.742 20.0241 338.488 19.041ZM353.322 7.68359V12.9473C354.208 11.9121 355.266 11.3945 356.496 11.3945C357.128 11.3945 357.697 11.5117 358.205 11.7461C358.713 11.9805 359.094 12.2799 359.348 12.6445C359.608 13.0091 359.784 13.4128 359.875 13.8555C359.973 14.2982 360.021 14.985 360.021 15.916V22H357.277V16.5215C357.277 15.4342 357.225 14.7441 357.121 14.4512C357.017 14.1582 356.831 13.9271 356.564 13.7578C356.304 13.582 355.975 13.4941 355.578 13.4941C355.122 13.4941 354.715 13.6048 354.357 13.8262C353.999 14.0475 353.736 14.3828 353.566 14.832C353.404 15.2747 353.322 15.9323 353.322 16.8047V22H350.578V7.68359H353.322ZM364.865 14.793L362.375 14.3438C362.655 13.3411 363.137 12.599 363.82 12.1172C364.504 11.6354 365.52 11.3945 366.867 11.3945C368.091 11.3945 369.003 11.541 369.602 11.834C370.201 12.1204 370.62 12.4883 370.861 12.9375C371.109 13.3802 371.232 14.1973 371.232 15.3887L371.203 18.5918C371.203 19.5033 371.245 20.1771 371.33 20.6133C371.421 21.043 371.587 21.5052 371.828 22H369.113C369.042 21.8177 368.954 21.5475 368.85 21.1895C368.804 21.0267 368.771 20.9193 368.752 20.8672C368.283 21.3229 367.782 21.6647 367.248 21.8926C366.714 22.1204 366.145 22.2344 365.539 22.2344C364.471 22.2344 363.628 21.9447 363.01 21.3652C362.398 20.7858 362.092 20.0534 362.092 19.168C362.092 18.582 362.232 18.0612 362.512 17.6055C362.792 17.1432 363.182 16.7917 363.684 16.5508C364.191 16.3034 364.921 16.0885 365.871 15.9062C367.154 15.6654 368.042 15.4408 368.537 15.2324V14.959C368.537 14.4316 368.407 14.0573 368.146 13.8359C367.886 13.6081 367.395 13.4941 366.672 13.4941C366.184 13.4941 365.803 13.5918 365.529 13.7871C365.256 13.9759 365.035 14.3112 364.865 14.793ZM368.537 17.0195C368.186 17.1367 367.629 17.2767 366.867 17.4395C366.105 17.6022 365.607 17.7617 365.373 17.918C365.015 18.1719 364.836 18.4941 364.836 18.8848C364.836 19.2689 364.979 19.6009 365.266 19.8809C365.552 20.1608 365.917 20.3008 366.359 20.3008C366.854 20.3008 367.326 20.138 367.775 19.8125C368.107 19.5651 368.326 19.2624 368.43 18.9043C368.501 18.6699 368.537 18.224 368.537 17.5664V17.0195ZM383.381 22H380.637V16.707C380.637 15.5872 380.578 14.8646 380.461 14.5391C380.344 14.207 380.152 13.9499 379.885 13.7676C379.624 13.5853 379.309 13.4941 378.938 13.4941C378.462 13.4941 378.036 13.6243 377.658 13.8848C377.281 14.1452 377.02 14.4902 376.877 14.9199C376.74 15.3496 376.672 16.1439 376.672 17.3027V22H373.928V11.6289H376.477V13.1523C377.382 11.9805 378.521 11.3945 379.895 11.3945C380.5 11.3945 381.053 11.5052 381.555 11.7266C382.056 11.9414 382.434 12.2181 382.688 12.5566C382.948 12.8952 383.127 13.2793 383.225 13.709C383.329 14.1387 383.381 14.7539 383.381 15.5547V22ZM384.875 11.6289H387.795L390.275 18.9922L392.697 11.6289H395.539L391.877 21.6094L391.223 23.416C390.982 24.0215 390.751 24.4837 390.529 24.8027C390.314 25.1217 390.064 25.3789 389.777 25.5742C389.497 25.776 389.149 25.9323 388.732 26.043C388.322 26.1536 387.857 26.209 387.336 26.209C386.809 26.209 386.291 26.1536 385.783 26.043L385.539 23.8945C385.969 23.9792 386.356 24.0215 386.701 24.0215C387.339 24.0215 387.811 23.8327 388.117 23.4551C388.423 23.084 388.658 22.6087 388.82 22.0293L384.875 11.6289ZM402.062 11.6289V13.8164H400.188V17.9961C400.188 18.8424 400.204 19.3372 400.236 19.4805C400.275 19.6172 400.357 19.7311 400.48 19.8223C400.611 19.9134 400.767 19.959 400.949 19.959C401.203 19.959 401.571 19.8711 402.053 19.6953L402.287 21.8242C401.649 22.0977 400.926 22.2344 400.119 22.2344C399.624 22.2344 399.178 22.153 398.781 21.9902C398.384 21.821 398.091 21.6061 397.902 21.3457C397.72 21.0788 397.593 20.7207 397.521 20.2715C397.463 19.9525 397.434 19.3079 397.434 18.3379V13.8164H396.174V11.6289H397.434V9.56836L400.188 7.9668V11.6289H402.062ZM403.42 18.3184L406.154 18.0352C406.232 18.6536 406.464 19.1452 406.848 19.5098C407.232 19.8678 407.674 20.0469 408.176 20.0469C408.749 20.0469 409.234 19.8158 409.631 19.3535C410.028 18.8848 410.227 18.1816 410.227 17.2441C410.227 16.3652 410.028 15.7077 409.631 15.2715C409.24 14.8288 408.729 14.6074 408.098 14.6074C407.31 14.6074 406.604 14.9557 405.979 15.6523L403.752 15.3301L405.158 7.87891H412.414V10.4473H407.238L406.809 12.8789C407.421 12.5729 408.046 12.4199 408.684 12.4199C409.901 12.4199 410.933 12.8626 411.779 13.748C412.626 14.6335 413.049 15.7826 413.049 17.1953C413.049 18.3737 412.707 19.4251 412.023 20.3496C411.092 21.6126 409.8 22.2441 408.146 22.2441C406.825 22.2441 405.747 21.8893 404.914 21.1797C404.081 20.4701 403.583 19.5163 403.42 18.3184ZM414.572 18.6895L417.229 18.3965C417.294 18.9368 417.463 19.3372 417.736 19.5977C418.01 19.8581 418.371 19.9883 418.82 19.9883C419.387 19.9883 419.868 19.7279 420.266 19.207C420.663 18.6862 420.917 17.6055 421.027 15.9648C420.337 16.7656 419.475 17.166 418.439 17.166C417.313 17.166 416.34 16.7331 415.52 15.8672C414.706 14.9948 414.299 13.862 414.299 12.4688C414.299 11.0169 414.729 9.84831 415.588 8.96289C416.454 8.07096 417.554 7.625 418.889 7.625C420.34 7.625 421.532 8.18815 422.463 9.31445C423.394 10.4342 423.859 12.2799 423.859 14.8516C423.859 17.4688 423.374 19.3568 422.404 20.5156C421.434 21.6745 420.171 22.2539 418.615 22.2539C417.495 22.2539 416.59 21.9577 415.9 21.3652C415.21 20.7663 414.768 19.8743 414.572 18.6895ZM420.783 12.6934C420.783 11.8079 420.578 11.1211 420.168 10.6328C419.764 10.1445 419.296 9.90039 418.762 9.90039C418.254 9.90039 417.831 10.1022 417.492 10.5059C417.16 10.903 416.994 11.5573 416.994 12.4688C416.994 13.3932 417.176 14.0736 417.541 14.5098C417.906 14.9395 418.361 15.1543 418.908 15.1543C419.436 15.1543 419.878 14.946 420.236 14.5293C420.601 14.1126 420.783 13.5007 420.783 12.6934ZM442.15 21.8145H444.23C443.579 23.1361 442.58 24.1712 441.232 24.9199C439.689 25.7793 437.808 26.209 435.588 26.209C433.439 26.209 431.584 25.8444 430.021 25.1152C428.459 24.3926 427.297 23.3249 426.535 21.9121C425.773 20.4928 425.393 18.9499 425.393 17.2832C425.393 15.4538 425.826 13.7513 426.691 12.1758C427.557 10.5938 428.742 9.40885 430.246 8.62109C431.75 7.82682 433.469 7.42969 435.402 7.42969C437.043 7.42969 438.501 7.7487 439.777 8.38672C441.053 9.02474 442.027 9.93294 442.697 11.1113C443.374 12.2832 443.713 13.5658 443.713 14.959C443.713 16.6191 443.202 18.1198 442.18 19.4609C440.897 21.1536 439.253 22 437.248 22C436.708 22 436.301 21.9056 436.027 21.7168C435.754 21.528 435.572 21.2513 435.48 20.8867C434.712 21.6289 433.827 22 432.824 22C431.743 22 430.845 21.6289 430.129 20.8867C429.419 20.138 429.064 19.1452 429.064 17.9082C429.064 16.3783 429.494 14.9818 430.354 13.7188C431.395 12.1823 432.73 11.4141 434.357 11.4141C435.516 11.4141 436.372 11.8568 436.926 12.7422L437.17 11.6582H439.748L438.273 18.6602C438.182 19.1029 438.137 19.3893 438.137 19.5195C438.137 19.6823 438.173 19.806 438.244 19.8906C438.322 19.9688 438.413 20.0078 438.518 20.0078C438.83 20.0078 439.234 19.819 439.729 19.4414C440.393 18.9466 440.93 18.2826 441.34 17.4492C441.75 16.6159 441.955 15.7533 441.955 14.8613C441.955 13.2598 441.376 11.9219 440.217 10.8477C439.058 9.76693 437.44 9.22656 435.363 9.22656C433.599 9.22656 432.102 9.58789 430.871 10.3105C429.647 11.0267 428.723 12.0391 428.098 13.3477C427.479 14.6497 427.17 16.0072 427.17 17.4199C427.17 18.7936 427.515 20.0436 428.205 21.1699C428.902 22.2962 429.875 23.1165 431.125 23.6309C432.382 24.1517 433.817 24.4121 435.432 24.4121C436.988 24.4121 438.326 24.194 439.445 23.7578C440.565 23.3281 441.467 22.6803 442.15 21.8145ZM431.594 17.8008C431.594 18.6276 431.76 19.2363 432.092 19.627C432.43 20.0176 432.847 20.2129 433.342 20.2129C433.713 20.2129 434.061 20.1217 434.387 19.9395C434.634 19.8092 434.878 19.6042 435.119 19.3242C435.464 18.9271 435.76 18.3477 436.008 17.5859C436.262 16.8242 436.389 16.1146 436.389 15.457C436.389 14.7214 436.216 14.1582 435.871 13.7676C435.533 13.3704 435.103 13.1719 434.582 13.1719C434.022 13.1719 433.505 13.39 433.029 13.8262C432.554 14.2559 432.196 14.8711 431.955 15.6719C431.714 16.4727 431.594 17.1823 431.594 17.8008ZM445.49 22.6836L448.625 23.0645C448.677 23.429 448.798 23.6797 448.986 23.8164C449.247 24.0117 449.657 24.1094 450.217 24.1094C450.933 24.1094 451.47 24.002 451.828 23.7871C452.069 23.6439 452.251 23.4128 452.375 23.0938C452.46 22.8659 452.502 22.446 452.502 21.834V20.3203C451.682 21.4401 450.646 22 449.396 22C448.003 22 446.9 21.4108 446.086 20.2324C445.448 19.3014 445.129 18.1426 445.129 16.7559C445.129 15.0176 445.546 13.6895 446.379 12.7715C447.219 11.8535 448.26 11.3945 449.504 11.3945C450.786 11.3945 451.844 11.9577 452.678 13.084V11.6289H455.246V20.9355C455.246 22.1595 455.145 23.0742 454.943 23.6797C454.742 24.2852 454.458 24.7604 454.094 25.1055C453.729 25.4505 453.241 25.7207 452.629 25.916C452.023 26.1113 451.255 26.209 450.324 26.209C448.566 26.209 447.32 25.9062 446.584 25.3008C445.848 24.7018 445.48 23.9401 445.48 23.0156C445.48 22.9245 445.484 22.8138 445.49 22.6836ZM447.941 16.5996C447.941 17.6999 448.153 18.5072 448.576 19.0215C449.006 19.5293 449.533 19.7832 450.158 19.7832C450.829 19.7832 451.395 19.5228 451.857 19.002C452.32 18.4746 452.551 17.6966 452.551 16.668C452.551 15.5938 452.329 14.7962 451.887 14.2754C451.444 13.7546 450.884 13.4941 450.207 13.4941C449.549 13.4941 449.006 13.7513 448.576 14.2656C448.153 14.7734 447.941 15.5514 447.941 16.5996ZM457.766 11.6289H460.295V13.0449C461.2 11.9447 462.277 11.3945 463.527 11.3945C464.191 11.3945 464.768 11.5312 465.256 11.8047C465.744 12.0781 466.145 12.4915 466.457 13.0449C466.913 12.4915 467.404 12.0781 467.932 11.8047C468.459 11.5312 469.022 11.3945 469.621 11.3945C470.383 11.3945 471.027 11.5508 471.555 11.8633C472.082 12.1693 472.476 12.6217 472.736 13.2207C472.925 13.6634 473.02 14.3796 473.02 15.3691V22H470.275V16.0723C470.275 15.0436 470.181 14.3796 469.992 14.0801C469.738 13.6895 469.348 13.4941 468.82 13.4941C468.436 13.4941 468.075 13.6113 467.736 13.8457C467.398 14.0801 467.154 14.4251 467.004 14.8809C466.854 15.3301 466.779 16.043 466.779 17.0195V22H464.035V16.3164C464.035 15.3073 463.986 14.6562 463.889 14.3633C463.791 14.0703 463.638 13.8522 463.43 13.709C463.228 13.5658 462.951 13.4941 462.6 13.4941C462.176 13.4941 461.796 13.6081 461.457 13.8359C461.118 14.0638 460.874 14.3926 460.725 14.8223C460.581 15.252 460.51 15.9648 460.51 16.9609V22H457.766V11.6289ZM477.814 14.793L475.324 14.3438C475.604 13.3411 476.086 12.599 476.77 12.1172C477.453 11.6354 478.469 11.3945 479.816 11.3945C481.04 11.3945 481.952 11.541 482.551 11.834C483.15 12.1204 483.57 12.4883 483.811 12.9375C484.058 13.3802 484.182 14.1973 484.182 15.3887L484.152 18.5918C484.152 19.5033 484.195 20.1771 484.279 20.6133C484.37 21.043 484.536 21.5052 484.777 22H482.062C481.991 21.8177 481.903 21.5475 481.799 21.1895C481.753 21.0267 481.721 20.9193 481.701 20.8672C481.232 21.3229 480.731 21.6647 480.197 21.8926C479.663 22.1204 479.094 22.2344 478.488 22.2344C477.421 22.2344 476.577 21.9447 475.959 21.3652C475.347 20.7858 475.041 20.0534 475.041 19.168C475.041 18.582 475.181 18.0612 475.461 17.6055C475.741 17.1432 476.132 16.7917 476.633 16.5508C477.141 16.3034 477.87 16.0885 478.82 15.9062C480.103 15.6654 480.992 15.4408 481.486 15.2324V14.959C481.486 14.4316 481.356 14.0573 481.096 13.8359C480.835 13.6081 480.344 13.4941 479.621 13.4941C479.133 13.4941 478.752 13.5918 478.479 13.7871C478.205 13.9759 477.984 14.3112 477.814 14.793ZM481.486 17.0195C481.135 17.1367 480.578 17.2767 479.816 17.4395C479.055 17.6022 478.557 17.7617 478.322 17.918C477.964 18.1719 477.785 18.4941 477.785 18.8848C477.785 19.2689 477.928 19.6009 478.215 19.8809C478.501 20.1608 478.866 20.3008 479.309 20.3008C479.803 20.3008 480.275 20.138 480.725 19.8125C481.057 19.5651 481.275 19.2624 481.379 18.9043C481.451 18.6699 481.486 18.224 481.486 17.5664V17.0195ZM486.896 10.2227V7.68359H489.641V10.2227H486.896ZM486.896 22V11.6289H489.641V22H486.896ZM492.463 22V7.68359H495.207V22H492.463ZM498.029 22V19.2559H500.773V22H498.029ZM512.639 14.6953L509.934 15.1836C509.842 14.6432 509.634 14.2363 509.309 13.9629C508.99 13.6895 508.573 13.5527 508.059 13.5527C507.375 13.5527 506.828 13.7904 506.418 14.2656C506.014 14.7344 505.812 15.5221 505.812 16.6289C505.812 17.8594 506.018 18.7285 506.428 19.2363C506.844 19.7441 507.401 19.998 508.098 19.998C508.618 19.998 509.045 19.8516 509.377 19.5586C509.709 19.2591 509.943 18.748 510.08 18.0254L512.775 18.4844C512.495 19.7214 511.958 20.6556 511.164 21.2871C510.37 21.9186 509.305 22.2344 507.971 22.2344C506.454 22.2344 505.243 21.7559 504.338 20.7988C503.439 19.8418 502.99 18.5169 502.99 16.8242C502.99 15.112 503.443 13.7806 504.348 12.8301C505.253 11.873 506.477 11.3945 508.02 11.3945C509.283 11.3945 510.285 11.668 511.027 12.2148C511.776 12.7552 512.313 13.582 512.639 14.6953ZM514.094 16.668C514.094 15.7565 514.318 14.8743 514.768 14.0215C515.217 13.1686 515.852 12.5176 516.672 12.0684C517.499 11.6191 518.42 11.3945 519.436 11.3945C521.005 11.3945 522.29 11.9056 523.293 12.9277C524.296 13.9434 524.797 15.2292 524.797 16.7852C524.797 18.3542 524.289 19.6562 523.273 20.6914C522.264 21.7201 520.992 22.2344 519.455 22.2344C518.505 22.2344 517.596 22.0195 516.73 21.5898C515.871 21.1602 515.217 20.5319 514.768 19.7051C514.318 18.8717 514.094 17.8594 514.094 16.668ZM516.906 16.8145C516.906 17.8431 517.15 18.6309 517.639 19.1777C518.127 19.7246 518.729 19.998 519.445 19.998C520.161 19.998 520.76 19.7246 521.242 19.1777C521.73 18.6309 521.975 17.8366 521.975 16.7949C521.975 15.7793 521.73 14.998 521.242 14.4512C520.76 13.9043 520.161 13.6309 519.445 13.6309C518.729 13.6309 518.127 13.9043 517.639 14.4512C517.15 14.998 516.906 15.7858 516.906 16.8145ZM526.75 11.6289H529.279V13.0449C530.184 11.9447 531.262 11.3945 532.512 11.3945C533.176 11.3945 533.752 11.5312 534.24 11.8047C534.729 12.0781 535.129 12.4915 535.441 13.0449C535.897 12.4915 536.389 12.0781 536.916 11.8047C537.443 11.5312 538.007 11.3945 538.605 11.3945C539.367 11.3945 540.012 11.5508 540.539 11.8633C541.066 12.1693 541.46 12.6217 541.721 13.2207C541.91 13.6634 542.004 14.3796 542.004 15.3691V22H539.26V16.0723C539.26 15.0436 539.165 14.3796 538.977 14.0801C538.723 13.6895 538.332 13.4941 537.805 13.4941C537.421 13.4941 537.059 13.6113 536.721 13.8457C536.382 14.0801 536.138 14.4251 535.988 14.8809C535.839 15.3301 535.764 16.043 535.764 17.0195V22H533.02V16.3164C533.02 15.3073 532.971 14.6562 532.873 14.3633C532.775 14.0703 532.622 13.8522 532.414 13.709C532.212 13.5658 531.936 13.4941 531.584 13.4941C531.161 13.4941 530.78 13.6081 530.441 13.8359C530.103 14.0638 529.859 14.3926 529.709 14.8223C529.566 15.252 529.494 15.9648 529.494 16.9609V22H526.75V11.6289Z" fill="black"/>
<path d="M667 6C667.53 6 668.039 6.21071 668.414 6.58579C668.789 6.96086 669 7.46957 669 8V22C669 22.5304 668.789 23.0391 668.414 23.4142C668.039 23.7893 667.53 24 667 24H653C652.47 24 651.961 23.7893 651.586 23.4142C651.211 23.0391 651 22.5304 651 22V8C651 7.46957 651.211 6.96086 651.586 6.58579C651.961 6.21071 652.47 6 653 6H667ZM666.5 21.5V16.2C666.5 15.3354 666.157 14.5062 665.545 13.8948C664.934 13.2835 664.105 12.94 663.24 12.94C662.39 12.94 661.4 13.46 660.92 14.24V13.13H658.13V21.5H660.92V16.57C660.92 15.8 661.54 15.17 662.31 15.17C662.681 15.17 663.037 15.3175 663.3 15.5801C663.563 15.8426 663.71 16.1987 663.71 16.57V21.5H666.5ZM654.88 11.56C655.326 11.56 655.753 11.383 656.068 11.0679C656.383 10.7529 656.56 10.3256 656.56 9.88C656.56 8.95 655.81 8.19 654.88 8.19C654.432 8.19 654.002 8.36805 653.685 8.68499C653.368 9.00193 653.19 9.43178 653.19 9.88C653.19 10.81 653.95 11.56 654.88 11.56ZM656.27 21.5V13.13H653.5V21.5H656.27Z" fill="black"/>
<path d="M683.465 22V7.68359H689.549C691.079 7.68359 692.189 7.8138 692.879 8.07422C693.576 8.32812 694.132 8.78385 694.549 9.44141C694.965 10.099 695.174 10.8509 695.174 11.6973C695.174 12.7715 694.858 13.6602 694.227 14.3633C693.595 15.0599 692.651 15.4993 691.395 15.6816C692.02 16.0462 692.534 16.4466 692.938 16.8828C693.348 17.319 693.898 18.0938 694.588 19.207L696.336 22H692.879L690.789 18.8848C690.047 17.7715 689.539 17.0716 689.266 16.7852C688.992 16.4922 688.702 16.2936 688.396 16.1895C688.09 16.0788 687.605 16.0234 686.941 16.0234H686.355V22H683.465ZM686.355 13.7383H688.494C689.881 13.7383 690.747 13.6797 691.092 13.5625C691.437 13.4453 691.707 13.2435 691.902 12.957C692.098 12.6706 692.195 12.3125 692.195 11.8828C692.195 11.401 692.065 11.0137 691.805 10.7207C691.551 10.4212 691.189 10.2324 690.721 10.1543C690.486 10.1217 689.783 10.1055 688.611 10.1055H686.355V13.7383ZM697.254 16.668C697.254 15.7565 697.479 14.8743 697.928 14.0215C698.377 13.1686 699.012 12.5176 699.832 12.0684C700.659 11.6191 701.58 11.3945 702.596 11.3945C704.165 11.3945 705.451 11.9056 706.453 12.9277C707.456 13.9434 707.957 15.2292 707.957 16.7852C707.957 18.3542 707.449 19.6562 706.434 20.6914C705.424 21.7201 704.152 22.2344 702.615 22.2344C701.665 22.2344 700.757 22.0195 699.891 21.5898C699.031 21.1602 698.377 20.5319 697.928 19.7051C697.479 18.8717 697.254 17.8594 697.254 16.668ZM700.066 16.8145C700.066 17.8431 700.311 18.6309 700.799 19.1777C701.287 19.7246 701.889 19.998 702.605 19.998C703.322 19.998 703.921 19.7246 704.402 19.1777C704.891 18.6309 705.135 17.8366 705.135 16.7949C705.135 15.7793 704.891 14.998 704.402 14.4512C703.921 13.9043 703.322 13.6309 702.605 13.6309C701.889 13.6309 701.287 13.9043 700.799 14.4512C700.311 14.998 700.066 15.7858 700.066 16.8145ZM719.549 22H716.805V16.707C716.805 15.5872 716.746 14.8646 716.629 14.5391C716.512 14.207 716.32 13.9499 716.053 13.7676C715.792 13.5853 715.477 13.4941 715.105 13.4941C714.63 13.4941 714.204 13.6243 713.826 13.8848C713.449 14.1452 713.188 14.4902 713.045 14.9199C712.908 15.3496 712.84 16.1439 712.84 17.3027V22H710.096V11.6289H712.645V13.1523C713.549 11.9805 714.689 11.3945 716.062 11.3945C716.668 11.3945 717.221 11.5052 717.723 11.7266C718.224 11.9414 718.602 12.2181 718.855 12.5566C719.116 12.8952 719.295 13.2793 719.393 13.709C719.497 14.1387 719.549 14.7539 719.549 15.5547V22ZM724.393 14.793L721.902 14.3438C722.182 13.3411 722.664 12.599 723.348 12.1172C724.031 11.6354 725.047 11.3945 726.395 11.3945C727.618 11.3945 728.53 11.541 729.129 11.834C729.728 12.1204 730.148 12.4883 730.389 12.9375C730.636 13.3802 730.76 14.1973 730.76 15.3887L730.73 18.5918C730.73 19.5033 730.773 20.1771 730.857 20.6133C730.949 21.043 731.115 21.5052 731.355 22H728.641C728.569 21.8177 728.481 21.5475 728.377 21.1895C728.331 21.0267 728.299 20.9193 728.279 20.8672C727.811 21.3229 727.309 21.6647 726.775 21.8926C726.242 22.1204 725.672 22.2344 725.066 22.2344C723.999 22.2344 723.156 21.9447 722.537 21.3652C721.925 20.7858 721.619 20.0534 721.619 19.168C721.619 18.582 721.759 18.0612 722.039 17.6055C722.319 17.1432 722.71 16.7917 723.211 16.5508C723.719 16.3034 724.448 16.0885 725.398 15.9062C726.681 15.6654 727.57 15.4408 728.064 15.2324V14.959C728.064 14.4316 727.934 14.0573 727.674 13.8359C727.413 13.6081 726.922 13.4941 726.199 13.4941C725.711 13.4941 725.33 13.5918 725.057 13.7871C724.783 13.9759 724.562 14.3112 724.393 14.793ZM728.064 17.0195C727.713 17.1367 727.156 17.2767 726.395 17.4395C725.633 17.6022 725.135 17.7617 724.9 17.918C724.542 18.1719 724.363 18.4941 724.363 18.8848C724.363 19.2689 724.507 19.6009 724.793 19.8809C725.079 20.1608 725.444 20.3008 725.887 20.3008C726.382 20.3008 726.854 20.138 727.303 19.8125C727.635 19.5651 727.853 19.2624 727.957 18.9043C728.029 18.6699 728.064 18.224 728.064 17.5664V17.0195ZM733.377 22V7.68359H736.121V15.2812L739.334 11.6289H742.713L739.168 15.418L742.967 22H740.008L737.4 17.3418L736.121 18.6797V22H733.377ZM749.461 17.3418L752.273 17.0684C752.443 18.0124 752.785 18.7057 753.299 19.1484C753.82 19.5911 754.52 19.8125 755.398 19.8125C756.329 19.8125 757.029 19.6172 757.498 19.2266C757.973 18.8294 758.211 18.3672 758.211 17.8398C758.211 17.5013 758.11 17.2148 757.908 16.9805C757.713 16.7396 757.368 16.5312 756.873 16.3555C756.535 16.2383 755.763 16.0299 754.559 15.7305C753.009 15.3464 751.922 14.8743 751.297 14.3145C750.418 13.5267 749.979 12.5664 749.979 11.4336C749.979 10.7044 750.184 10.0241 750.594 9.39258C751.01 8.75456 751.606 8.26953 752.381 7.9375C753.162 7.60547 754.103 7.43945 755.203 7.43945C757 7.43945 758.351 7.83333 759.256 8.62109C760.167 9.40885 760.646 10.4603 760.691 11.7754L757.801 11.9023C757.677 11.1667 757.41 10.6393 757 10.3203C756.596 9.99479 755.988 9.83203 755.174 9.83203C754.334 9.83203 753.676 10.0046 753.201 10.3496C752.895 10.571 752.742 10.8672 752.742 11.2383C752.742 11.5768 752.885 11.8665 753.172 12.1074C753.536 12.4134 754.422 12.7324 755.828 13.0645C757.234 13.3965 758.273 13.7415 758.943 14.0996C759.62 14.4512 760.148 14.9362 760.525 15.5547C760.91 16.1667 761.102 16.9251 761.102 17.8301C761.102 18.6504 760.874 19.4186 760.418 20.1348C759.962 20.8509 759.318 21.3848 758.484 21.7363C757.651 22.0814 756.613 22.2539 755.369 22.2539C753.559 22.2539 752.169 21.8372 751.199 21.0039C750.229 20.1641 749.65 18.9434 749.461 17.3418ZM766.248 7.68359V12.9473C767.133 11.9121 768.191 11.3945 769.422 11.3945C770.053 11.3945 770.623 11.5117 771.131 11.7461C771.639 11.9805 772.02 12.2799 772.273 12.6445C772.534 13.0091 772.71 13.4128 772.801 13.8555C772.898 14.2982 772.947 14.985 772.947 15.916V22H770.203V16.5215C770.203 15.4342 770.151 14.7441 770.047 14.4512C769.943 14.1582 769.757 13.9271 769.49 13.7578C769.23 13.582 768.901 13.4941 768.504 13.4941C768.048 13.4941 767.641 13.6048 767.283 13.8262C766.925 14.0475 766.661 14.3828 766.492 14.832C766.329 15.2747 766.248 15.9323 766.248 16.8047V22H763.504V7.68359H766.248ZM777.791 14.793L775.301 14.3438C775.581 13.3411 776.062 12.599 776.746 12.1172C777.43 11.6354 778.445 11.3945 779.793 11.3945C781.017 11.3945 781.928 11.541 782.527 11.834C783.126 12.1204 783.546 12.4883 783.787 12.9375C784.035 13.3802 784.158 14.1973 784.158 15.3887L784.129 18.5918C784.129 19.5033 784.171 20.1771 784.256 20.6133C784.347 21.043 784.513 21.5052 784.754 22H782.039C781.967 21.8177 781.88 21.5475 781.775 21.1895C781.73 21.0267 781.697 20.9193 781.678 20.8672C781.209 21.3229 780.708 21.6647 780.174 21.8926C779.64 22.1204 779.07 22.2344 778.465 22.2344C777.397 22.2344 776.554 21.9447 775.936 21.3652C775.324 20.7858 775.018 20.0534 775.018 19.168C775.018 18.582 775.158 18.0612 775.438 17.6055C775.717 17.1432 776.108 16.7917 776.609 16.5508C777.117 16.3034 777.846 16.0885 778.797 15.9062C780.079 15.6654 780.968 15.4408 781.463 15.2324V14.959C781.463 14.4316 781.333 14.0573 781.072 13.8359C780.812 13.6081 780.32 13.4941 779.598 13.4941C779.109 13.4941 778.729 13.5918 778.455 13.7871C778.182 13.9759 777.96 14.3112 777.791 14.793ZM781.463 17.0195C781.111 17.1367 780.555 17.2767 779.793 17.4395C779.031 17.6022 778.533 17.7617 778.299 17.918C777.941 18.1719 777.762 18.4941 777.762 18.8848C777.762 19.2689 777.905 19.6009 778.191 19.8809C778.478 20.1608 778.842 20.3008 779.285 20.3008C779.78 20.3008 780.252 20.138 780.701 19.8125C781.033 19.5651 781.251 19.2624 781.355 18.9043C781.427 18.6699 781.463 18.224 781.463 17.5664V17.0195ZM789.5 22H786.756V11.6289H789.305V13.1035C789.741 12.4069 790.132 11.9479 790.477 11.7266C790.828 11.5052 791.225 11.3945 791.668 11.3945C792.293 11.3945 792.895 11.5671 793.475 11.9121L792.625 14.3047C792.163 14.0052 791.733 13.8555 791.336 13.8555C790.952 13.8555 790.626 13.9629 790.359 14.1777C790.092 14.3861 789.881 14.7669 789.725 15.3203C789.575 15.8737 789.5 17.0326 789.5 18.7969V22ZM794.461 11.6289H796.99V13.0449C797.895 11.9447 798.973 11.3945 800.223 11.3945C800.887 11.3945 801.463 11.5312 801.951 11.8047C802.439 12.0781 802.84 12.4915 803.152 13.0449C803.608 12.4915 804.1 12.0781 804.627 11.8047C805.154 11.5312 805.717 11.3945 806.316 11.3945C807.078 11.3945 807.723 11.5508 808.25 11.8633C808.777 12.1693 809.171 12.6217 809.432 13.2207C809.62 13.6634 809.715 14.3796 809.715 15.3691V22H806.971V16.0723C806.971 15.0436 806.876 14.3796 806.688 14.0801C806.434 13.6895 806.043 13.4941 805.516 13.4941C805.132 13.4941 804.77 13.6113 804.432 13.8457C804.093 14.0801 803.849 14.4251 803.699 14.8809C803.549 15.3301 803.475 16.043 803.475 17.0195V22H800.73V16.3164C800.73 15.3073 800.682 14.6562 800.584 14.3633C800.486 14.0703 800.333 13.8522 800.125 13.709C799.923 13.5658 799.646 13.4941 799.295 13.4941C798.872 13.4941 798.491 13.6081 798.152 13.8359C797.814 14.0638 797.57 14.3926 797.42 14.8223C797.277 15.252 797.205 15.9648 797.205 16.9609V22H794.461V11.6289ZM814.51 14.793L812.02 14.3438C812.299 13.3411 812.781 12.599 813.465 12.1172C814.148 11.6354 815.164 11.3945 816.512 11.3945C817.736 11.3945 818.647 11.541 819.246 11.834C819.845 12.1204 820.265 12.4883 820.506 12.9375C820.753 13.3802 820.877 14.1973 820.877 15.3887L820.848 18.5918C820.848 19.5033 820.89 20.1771 820.975 20.6133C821.066 21.043 821.232 21.5052 821.473 22H818.758C818.686 21.8177 818.598 21.5475 818.494 21.1895C818.449 21.0267 818.416 20.9193 818.396 20.8672C817.928 21.3229 817.426 21.6647 816.893 21.8926C816.359 22.1204 815.789 22.2344 815.184 22.2344C814.116 22.2344 813.273 21.9447 812.654 21.3652C812.042 20.7858 811.736 20.0534 811.736 19.168C811.736 18.582 811.876 18.0612 812.156 17.6055C812.436 17.1432 812.827 16.7917 813.328 16.5508C813.836 16.3034 814.565 16.0885 815.516 15.9062C816.798 15.6654 817.687 15.4408 818.182 15.2324V14.959C818.182 14.4316 818.051 14.0573 817.791 13.8359C817.531 13.6081 817.039 13.4941 816.316 13.4941C815.828 13.4941 815.447 13.5918 815.174 13.7871C814.9 13.9759 814.679 14.3112 814.51 14.793ZM818.182 17.0195C817.83 17.1367 817.273 17.2767 816.512 17.4395C815.75 17.6022 815.252 17.7617 815.018 17.918C814.66 18.1719 814.48 18.4941 814.48 18.8848C814.48 19.2689 814.624 19.6009 814.91 19.8809C815.197 20.1608 815.561 20.3008 816.004 20.3008C816.499 20.3008 816.971 20.138 817.42 19.8125C817.752 19.5651 817.97 19.2624 818.074 18.9043C818.146 18.6699 818.182 18.224 818.182 17.5664V17.0195Z" fill="black"/>
<path d="M946.05 7.91005C945.133 6.98416 944.041 6.25002 942.838 5.75042C941.634 5.25081 940.343 4.99574 939.04 5.00005C933.58 5.00005 929.13 9.45005 929.13 14.9101C929.13 16.6601 929.59 18.3601 930.45 19.8601L929.05 25.0001L934.3 23.6201C935.75 24.4101 937.38 24.8301 939.04 24.8301C944.5 24.8301 948.95 20.3801 948.95 14.9201C948.95 12.2701 947.92 9.78005 946.05 7.91005ZM939.04 23.1501C937.56 23.1501 936.11 22.7501 934.84 22.0001L934.54 21.8201L931.42 22.6401L932.25 19.6001L932.05 19.2901C931.228 17.9771 930.791 16.4593 930.79 14.9101C930.79 10.3701 934.49 6.67005 939.03 6.67005C941.23 6.67005 943.3 7.53005 944.85 9.09005C945.618 9.85392 946.226 10.7626 946.64 11.7634C947.053 12.7642 947.264 13.8371 947.26 14.9201C947.28 19.4601 943.58 23.1501 939.04 23.1501ZM943.56 16.9901C943.31 16.8701 942.09 16.2701 941.87 16.1801C941.64 16.1001 941.48 16.0601 941.31 16.3001C941.14 16.5501 940.67 17.1101 940.53 17.2701C940.39 17.4401 940.24 17.4601 939.99 17.3301C939.74 17.2101 938.94 16.9401 938 16.1001C937.26 15.4401 936.77 14.6301 936.62 14.3801C936.48 14.1301 936.6 14.0001 936.73 13.8701C936.84 13.7601 936.98 13.5801 937.1 13.4401C937.22 13.3001 937.27 13.1901 937.35 13.0301C937.43 12.8601 937.39 12.7201 937.33 12.6001C937.27 12.4801 936.77 11.2601 936.57 10.7601C936.37 10.2801 936.16 10.3401 936.01 10.3301H935.53C935.36 10.3301 935.1 10.3901 934.87 10.6401C934.65 10.8901 934.01 11.4901 934.01 12.7101C934.01 13.9301 934.9 15.1101 935.02 15.2701C935.14 15.4401 936.77 17.9401 939.25 19.0101C939.84 19.2701 940.3 19.4201 940.66 19.5301C941.25 19.7201 941.79 19.6901 942.22 19.6301C942.7 19.5601 943.69 19.0301 943.89 18.4501C944.1 17.8701 944.1 17.3801 944.03 17.2701C943.96 17.1601 943.81 17.1101 943.56 16.9901Z" fill="black"/>
<path d="M965.58 19.9395V16.2188H961.83V13.6504H965.58V9.92969H968.08V13.6504H971.84V16.2188H968.08V19.9395H965.58ZM973.588 18.6895L976.244 18.3965C976.309 18.9368 976.479 19.3372 976.752 19.5977C977.025 19.8581 977.387 19.9883 977.836 19.9883C978.402 19.9883 978.884 19.7279 979.281 19.207C979.678 18.6862 979.932 17.6055 980.043 15.9648C979.353 16.7656 978.49 17.166 977.455 17.166C976.329 17.166 975.355 16.7331 974.535 15.8672C973.721 14.9948 973.314 13.862 973.314 12.4688C973.314 11.0169 973.744 9.84831 974.604 8.96289C975.469 8.07096 976.57 7.625 977.904 7.625C979.356 7.625 980.548 8.18815 981.479 9.31445C982.41 10.4342 982.875 12.2799 982.875 14.8516C982.875 17.4688 982.39 19.3568 981.42 20.5156C980.45 21.6745 979.187 22.2539 977.631 22.2539C976.511 22.2539 975.606 21.9577 974.916 21.3652C974.226 20.7663 973.783 19.8743 973.588 18.6895ZM979.799 12.6934C979.799 11.8079 979.594 11.1211 979.184 10.6328C978.78 10.1445 978.311 9.90039 977.777 9.90039C977.27 9.90039 976.846 10.1022 976.508 10.5059C976.176 10.903 976.01 11.5573 976.01 12.4688C976.01 13.3932 976.192 14.0736 976.557 14.5098C976.921 14.9395 977.377 15.1543 977.924 15.1543C978.451 15.1543 978.894 14.946 979.252 14.5293C979.617 14.1126 979.799 13.5007 979.799 12.6934ZM991.684 22H988.939V11.6582C987.937 12.5957 986.755 13.2891 985.395 13.7383V11.248C986.111 11.0137 986.889 10.571 987.729 9.91992C988.568 9.26237 989.145 8.4974 989.457 7.625H991.684V22ZM995.854 18.6895L998.51 18.3965C998.575 18.9368 998.744 19.3372 999.018 19.5977C999.291 19.8581 999.652 19.9883 1000.1 19.9883C1000.67 19.9883 1001.15 19.7279 1001.55 19.207C1001.94 18.6862 1002.2 17.6055 1002.31 15.9648C1001.62 16.7656 1000.76 17.166 999.721 17.166C998.594 17.166 997.621 16.7331 996.801 15.8672C995.987 14.9948 995.58 13.862 995.58 12.4688C995.58 11.0169 996.01 9.84831 996.869 8.96289C997.735 8.07096 998.835 7.625 1000.17 7.625C1001.62 7.625 1002.81 8.18815 1003.74 9.31445C1004.68 10.4342 1005.14 12.2799 1005.14 14.8516C1005.14 17.4688 1004.66 19.3568 1003.69 20.5156C1002.72 21.6745 1001.45 22.2539 999.896 22.2539C998.777 22.2539 997.872 21.9577 997.182 21.3652C996.492 20.7663 996.049 19.8743 995.854 18.6895ZM1002.06 12.6934C1002.06 11.8079 1001.86 11.1211 1001.45 10.6328C1001.05 10.1445 1000.58 9.90039 1000.04 9.90039C999.535 9.90039 999.112 10.1022 998.773 10.5059C998.441 10.903 998.275 11.5573 998.275 12.4688C998.275 13.3932 998.458 14.0736 998.822 14.5098C999.187 14.9395 999.643 15.1543 1000.19 15.1543C1000.72 15.1543 1001.16 14.946 1001.52 14.5293C1001.88 14.1126 1002.06 13.5007 1002.06 12.6934ZM1006.99 18.6895L1009.64 18.3965C1009.71 18.9368 1009.88 19.3372 1010.15 19.5977C1010.42 19.8581 1010.79 19.9883 1011.23 19.9883C1011.8 19.9883 1012.28 19.7279 1012.68 19.207C1013.08 18.6862 1013.33 17.6055 1013.44 15.9648C1012.75 16.7656 1011.89 17.166 1010.85 17.166C1009.73 17.166 1008.75 16.7331 1007.93 15.8672C1007.12 14.9948 1006.71 13.862 1006.71 12.4688C1006.71 11.0169 1007.14 9.84831 1008 8.96289C1008.87 8.07096 1009.97 7.625 1011.3 7.625C1012.75 7.625 1013.95 8.18815 1014.88 9.31445C1015.81 10.4342 1016.27 12.2799 1016.27 14.8516C1016.27 17.4688 1015.79 19.3568 1014.82 20.5156C1013.85 21.6745 1012.59 22.2539 1011.03 22.2539C1009.91 22.2539 1009 21.9577 1008.31 21.3652C1007.62 20.7663 1007.18 19.8743 1006.99 18.6895ZM1013.2 12.6934C1013.2 11.8079 1012.99 11.1211 1012.58 10.6328C1012.18 10.1445 1011.71 9.90039 1011.18 9.90039C1010.67 9.90039 1010.24 10.1022 1009.91 10.5059C1009.57 10.903 1009.41 11.5573 1009.41 12.4688C1009.41 13.3932 1009.59 14.0736 1009.96 14.5098C1010.32 14.9395 1010.78 15.1543 1011.32 15.1543C1011.85 15.1543 1012.29 14.946 1012.65 14.5293C1013.01 14.1126 1013.2 13.5007 1013.2 12.6934ZM1018.12 18.6895L1020.78 18.3965C1020.84 18.9368 1021.01 19.3372 1021.28 19.5977C1021.56 19.8581 1021.92 19.9883 1022.37 19.9883C1022.93 19.9883 1023.42 19.7279 1023.81 19.207C1024.21 18.6862 1024.46 17.6055 1024.57 15.9648C1023.88 16.7656 1023.02 17.166 1021.99 17.166C1020.86 17.166 1019.89 16.7331 1019.07 15.8672C1018.25 14.9948 1017.85 13.862 1017.85 12.4688C1017.85 11.0169 1018.28 9.84831 1019.13 8.96289C1020 8.07096 1021.1 7.625 1022.44 7.625C1023.89 7.625 1025.08 8.18815 1026.01 9.31445C1026.94 10.4342 1027.41 12.2799 1027.41 14.8516C1027.41 17.4688 1026.92 19.3568 1025.95 20.5156C1024.98 21.6745 1023.72 22.2539 1022.16 22.2539C1021.04 22.2539 1020.14 21.9577 1019.45 21.3652C1018.76 20.7663 1018.31 19.8743 1018.12 18.6895ZM1024.33 12.6934C1024.33 11.8079 1024.12 11.1211 1023.71 10.6328C1023.31 10.1445 1022.84 9.90039 1022.31 9.90039C1021.8 9.90039 1021.38 10.1022 1021.04 10.5059C1020.71 10.903 1020.54 11.5573 1020.54 12.4688C1020.54 13.3932 1020.72 14.0736 1021.09 14.5098C1021.45 14.9395 1021.91 15.1543 1022.46 15.1543C1022.98 15.1543 1023.43 14.946 1023.78 14.5293C1024.15 14.1126 1024.33 13.5007 1024.33 12.6934ZM1033.83 7.625C1035.22 7.625 1036.3 8.11979 1037.08 9.10938C1038.01 10.2812 1038.48 12.2246 1038.48 14.9395C1038.48 17.6478 1038.01 19.5944 1037.07 20.7793C1036.3 21.7559 1035.22 22.2441 1033.83 22.2441C1032.44 22.2441 1031.32 21.7103 1030.46 20.6426C1029.61 19.5684 1029.18 17.6576 1029.18 14.9102C1029.18 12.2148 1029.65 10.2747 1030.59 9.08984C1031.36 8.11328 1032.45 7.625 1033.83 7.625ZM1033.83 9.90039C1033.5 9.90039 1033.2 10.0078 1032.94 10.2227C1032.68 10.431 1032.48 10.8086 1032.34 11.3555C1032.15 12.0651 1032.05 13.2598 1032.05 14.9395C1032.05 16.6191 1032.14 17.7747 1032.31 18.4062C1032.48 19.0312 1032.69 19.4479 1032.94 19.6562C1033.2 19.8646 1033.5 19.9688 1033.83 19.9688C1034.16 19.9688 1034.46 19.8646 1034.72 19.6562C1034.98 19.4414 1035.18 19.0605 1035.33 18.5137C1035.51 17.8105 1035.61 16.6191 1035.61 14.9395C1035.61 13.2598 1035.52 12.1074 1035.36 11.4824C1035.19 10.8509 1034.97 10.431 1034.71 10.2227C1034.46 10.0078 1034.16 9.90039 1033.83 9.90039ZM1047.35 22H1044.6V11.6582C1043.6 12.5957 1042.42 13.2891 1041.06 13.7383V11.248C1041.77 11.0137 1042.55 10.571 1043.39 9.91992C1044.23 9.26237 1044.81 8.4974 1045.12 7.625H1047.35V22ZM1056.1 7.625C1057.48 7.625 1058.57 8.11979 1059.35 9.10938C1060.28 10.2812 1060.75 12.2246 1060.75 14.9395C1060.75 17.6478 1060.28 19.5944 1059.34 20.7793C1058.57 21.7559 1057.48 22.2441 1056.1 22.2441C1054.7 22.2441 1053.58 21.7103 1052.73 20.6426C1051.88 19.5684 1051.45 17.6576 1051.45 14.9102C1051.45 12.2148 1051.92 10.2747 1052.86 9.08984C1053.63 8.11328 1054.71 7.625 1056.1 7.625ZM1056.1 9.90039C1055.77 9.90039 1055.47 10.0078 1055.21 10.2227C1054.95 10.431 1054.75 10.8086 1054.6 11.3555C1054.41 12.0651 1054.32 13.2598 1054.32 14.9395C1054.32 16.6191 1054.4 17.7747 1054.57 18.4062C1054.74 19.0312 1054.96 19.4479 1055.21 19.6562C1055.47 19.8646 1055.77 19.9688 1056.1 19.9688C1056.43 19.9688 1056.73 19.8646 1056.99 19.6562C1057.25 19.4414 1057.45 19.0605 1057.59 18.5137C1057.78 17.8105 1057.88 16.6191 1057.88 14.9395C1057.88 13.2598 1057.79 12.1074 1057.62 11.4824C1057.45 10.8509 1057.24 10.431 1056.98 10.2227C1056.72 10.0078 1056.43 9.90039 1056.1 9.90039ZM1062.49 18.2012L1065.15 17.8789C1065.24 18.556 1065.46 19.0736 1065.83 19.4316C1066.21 19.7897 1066.65 19.9688 1067.18 19.9688C1067.75 19.9688 1068.22 19.7539 1068.61 19.3242C1069 18.8945 1069.19 18.3151 1069.19 17.5859C1069.19 16.8958 1069.01 16.349 1068.64 15.9453C1068.27 15.5417 1067.81 15.3398 1067.28 15.3398C1066.93 15.3398 1066.51 15.4082 1066.02 15.5449L1066.32 13.3086C1067.06 13.3281 1067.63 13.1686 1068.02 12.8301C1068.41 12.485 1068.61 12.0293 1068.61 11.4629C1068.61 10.9811 1068.46 10.597 1068.18 10.3105C1067.89 10.0241 1067.51 9.88086 1067.04 9.88086C1066.57 9.88086 1066.17 10.0436 1065.83 10.3691C1065.5 10.6947 1065.3 11.1699 1065.23 11.7949L1062.7 11.3652C1062.88 10.4993 1063.14 9.80924 1063.49 9.29492C1063.85 8.77409 1064.34 8.36719 1064.97 8.07422C1065.61 7.77474 1066.33 7.625 1067.11 7.625C1068.46 7.625 1069.54 8.05469 1070.36 8.91406C1071.03 9.61719 1071.36 10.4115 1071.36 11.2969C1071.36 12.5534 1070.67 13.556 1069.3 14.3047C1070.12 14.4805 1070.78 14.8743 1071.26 15.4863C1071.76 16.0983 1072.01 16.8372 1072.01 17.7031C1072.01 18.9596 1071.55 20.0306 1070.63 20.916C1069.71 21.8014 1068.57 22.2441 1067.2 22.2441C1065.91 22.2441 1064.83 21.873 1063.98 21.1309C1063.13 20.3822 1062.63 19.4056 1062.49 18.2012ZM1083.02 11.1895L1080.37 11.4824C1080.3 10.9355 1080.13 10.5319 1079.86 10.2715C1079.58 10.0111 1079.23 9.88086 1078.79 9.88086C1078.21 9.88086 1077.72 10.1413 1077.32 10.6621C1076.92 11.1829 1076.67 12.2669 1076.57 13.9141C1077.25 13.1068 1078.1 12.7031 1079.12 12.7031C1080.26 12.7031 1081.24 13.1393 1082.05 14.0117C1082.88 14.8841 1083.29 16.0104 1083.29 17.3906C1083.29 18.8555 1082.86 20.0306 1082 20.916C1081.14 21.8014 1080.03 22.2441 1078.69 22.2441C1077.24 22.2441 1076.05 21.6842 1075.12 20.5645C1074.19 19.4382 1073.72 17.5957 1073.72 15.0371C1073.72 12.4134 1074.21 10.5221 1075.18 9.36328C1076.15 8.20443 1077.41 7.625 1078.96 7.625C1080.05 7.625 1080.94 7.93099 1081.65 8.54297C1082.37 9.14844 1082.83 10.0306 1083.02 11.1895ZM1076.8 17.1758C1076.8 18.0677 1077.01 18.7578 1077.42 19.2461C1077.83 19.7279 1078.29 19.9688 1078.82 19.9688C1079.33 19.9688 1079.75 19.7702 1080.09 19.373C1080.43 18.9759 1080.6 18.3249 1080.6 17.4199C1080.6 16.4889 1080.42 15.8086 1080.05 15.3789C1079.69 14.9427 1079.23 14.7246 1078.69 14.7246C1078.16 14.7246 1077.71 14.9329 1077.35 15.3496C1076.98 15.7598 1076.8 16.3685 1076.8 17.1758ZM1087.21 14.2754C1086.5 13.9759 1085.98 13.5658 1085.66 13.0449C1085.34 12.5176 1085.18 11.9414 1085.18 11.3164C1085.18 10.2487 1085.55 9.36654 1086.29 8.66992C1087.04 7.97331 1088.1 7.625 1089.48 7.625C1090.84 7.625 1091.89 7.97331 1092.64 8.66992C1093.4 9.36654 1093.77 10.2487 1093.77 11.3164C1093.77 11.9805 1093.6 12.5729 1093.26 13.0938C1092.91 13.6081 1092.43 14.002 1091.8 14.2754C1092.6 14.5944 1093.2 15.0599 1093.61 15.6719C1094.02 16.2839 1094.23 16.9902 1094.23 17.791C1094.23 19.1126 1093.81 20.1868 1092.96 21.0137C1092.12 21.8405 1091 22.2539 1089.6 22.2539C1088.3 22.2539 1087.22 21.9121 1086.35 21.2285C1085.33 20.4212 1084.82 19.3145 1084.82 17.9082C1084.82 17.1335 1085.01 16.4238 1085.39 15.7793C1085.78 15.1283 1086.38 14.627 1087.21 14.2754ZM1087.78 11.5117C1087.78 12.0586 1087.93 12.485 1088.24 12.791C1088.55 13.097 1088.96 13.25 1089.48 13.25C1090 13.25 1090.41 13.097 1090.73 12.791C1091.04 12.4785 1091.2 12.0488 1091.2 11.502C1091.2 10.9876 1091.04 10.5775 1090.73 10.2715C1090.42 9.95898 1090.01 9.80273 1089.51 9.80273C1088.98 9.80273 1088.56 9.95898 1088.25 10.2715C1087.93 10.584 1087.78 10.9974 1087.78 11.5117ZM1087.52 17.6445C1087.52 18.3997 1087.72 18.9889 1088.1 19.4121C1088.49 19.8353 1088.98 20.0469 1089.55 20.0469C1090.12 20.0469 1090.59 19.8451 1090.96 19.4414C1091.33 19.0312 1091.52 18.4421 1091.52 17.6738C1091.52 17.0033 1091.33 16.4661 1090.95 16.0625C1090.57 15.6523 1090.1 15.4473 1089.52 15.4473C1088.85 15.4473 1088.34 15.6784 1088.01 16.1406C1087.69 16.6029 1087.52 17.1042 1087.52 17.6445ZM1095.89 18.2012L1098.55 17.8789C1098.63 18.556 1098.86 19.0736 1099.23 19.4316C1099.6 19.7897 1100.05 19.9688 1100.58 19.9688C1101.15 19.9688 1101.62 19.7539 1102.01 19.3242C1102.4 18.8945 1102.59 18.3151 1102.59 17.5859C1102.59 16.8958 1102.41 16.349 1102.04 15.9453C1101.66 15.5417 1101.21 15.3398 1100.68 15.3398C1100.33 15.3398 1099.91 15.4082 1099.42 15.5449L1099.72 13.3086C1100.46 13.3281 1101.03 13.1686 1101.42 12.8301C1101.81 12.485 1102.01 12.0293 1102.01 11.4629C1102.01 10.9811 1101.86 10.597 1101.58 10.3105C1101.29 10.0241 1100.91 9.88086 1100.43 9.88086C1099.96 9.88086 1099.56 10.0436 1099.23 10.3691C1098.9 10.6947 1098.7 11.1699 1098.63 11.7949L1096.1 11.3652C1096.27 10.4993 1096.54 9.80924 1096.89 9.29492C1097.25 8.77409 1097.74 8.36719 1098.37 8.07422C1099.01 7.77474 1099.72 7.625 1100.51 7.625C1101.86 7.625 1102.94 8.05469 1103.75 8.91406C1104.42 9.61719 1104.76 10.4115 1104.76 11.2969C1104.76 12.5534 1104.07 13.556 1102.7 14.3047C1103.52 14.4805 1104.17 14.8743 1104.66 15.4863C1105.16 16.0983 1105.4 16.8372 1105.4 17.7031C1105.4 18.9596 1104.95 20.0306 1104.03 20.916C1103.11 21.8014 1101.97 22.2441 1100.6 22.2441C1099.3 22.2441 1098.23 21.873 1097.38 21.1309C1096.52 20.3822 1096.03 19.4056 1095.89 18.2012Z" fill="black"/>
</svg>
