<svg width="100" height="100" viewBox="0 0 100 100" fill="none" xmlns="http://www.w3.org/2000/svg">
<path d="M50 100C22.3852 100 0 77.6134 0 50C0 22.3852 22.3866 0 50 0C77.6148 0 100 22.3866 100 50C100.001 77.6134 77.6148 100 50 100Z" fill="#57F676"/>
<path fill-rule="evenodd" clip-rule="evenodd" d="M77.4141 48.6114C77.0489 34.1647 65.148 22.5664 50.4992 22.5664C36.0275 22.5664 24.227 33.8998 23.5983 48.1192C23.5857 48.5096 23.5732 48.9014 23.5732 49.2917C23.5732 54.3471 24.9841 59.0622 27.4309 63.0956L22.5777 77.4294L37.4914 72.6891C41.3491 74.8069 45.7868 76.017 50.5006 76.017C65.3767 76.017 77.4281 64.0535 77.4281 49.2917C77.4267 49.0659 77.4267 48.8386 77.4141 48.6114ZM50.4992 71.7578C45.8984 71.7578 41.6238 70.3956 38.0449 68.0394L29.3465 70.8125L32.1698 62.4668C29.4594 58.7611 27.8589 54.2105 27.8589 49.2931C27.8589 48.5612 27.8966 47.8306 27.9718 47.1126C29.0816 35.7416 38.7629 26.8285 50.4992 26.8285C62.3875 26.8285 72.1566 35.9674 73.0643 47.5406C73.1145 48.1206 73.1396 48.7006 73.1396 49.2931C73.1396 61.6847 62.9787 71.7578 50.4992 71.7578Z" fill="white"/>
<path fill-rule="evenodd" clip-rule="evenodd" d="M62.8407 54.6888C62.1729 54.3611 58.9328 52.7731 58.3277 52.5584C57.7226 52.3312 57.2807 52.2308 56.8401 52.8861C56.3995 53.5414 55.1252 55.0164 54.7474 55.4444C54.357 55.885 53.9792 55.9366 53.3114 55.609C52.6561 55.2813 50.5258 54.6009 48.0037 52.3563C46.0504 50.6289 44.7134 48.486 44.3355 47.8307C43.9577 47.1755 44.2979 46.8227 44.6255 46.4951C44.9281 46.1925 45.2808 45.7255 45.621 45.3477C45.7102 45.2333 45.7855 45.133 45.8608 45.0326C46.0128 44.7928 46.1257 44.5655 46.2763 44.2504C46.5035 43.8099 46.3906 43.4321 46.2261 43.103C46.0616 42.774 44.7385 39.5478 44.1836 38.2373C43.6412 36.9267 43.0877 37.1526 42.696 37.1526C42.3182 37.1526 41.8762 37.0898 41.4356 37.0898C40.9951 37.0898 40.2757 37.253 39.6706 37.9082C39.0655 38.5635 37.3632 40.1529 37.3632 43.3791C37.3632 44.1347 37.5026 44.8918 37.7034 45.6112C38.3712 47.9186 39.8086 49.8216 40.061 50.1493C40.3886 50.5773 44.6241 57.4102 51.3302 60.0452C58.0488 62.6552 58.0488 61.7838 59.2604 61.6709C60.4706 61.5691 63.1683 60.0955 63.7093 58.5577C64.2642 57.0324 64.2642 55.7205 64.101 55.4444C63.9365 55.1795 63.496 55.0164 62.8407 54.6888Z" fill="white"/>
</svg>
