<svg width="100" height="100" viewBox="0 0 100 100" fill="none" xmlns="http://www.w3.org/2000/svg">
<path d="M50 100C22.3852 100 0 77.6134 0 50C0 22.3852 22.3852 0 50 0C77.6148 0 100 22.3866 100 50C100.001 77.6134 77.6148 100 50 100Z" fill="#0057FF"/>
<path d="M42.5369 66.5894C44.0566 66.2743 45.3755 65.6887 46.4936 64.8327C47.4821 64.0896 48.3116 63.1708 48.9739 62.0792C50.0126 60.4298 50.5312 58.5714 50.5312 56.494C50.5312 54.485 50.0753 52.7729 49.1677 51.3648C48.2573 49.9552 46.9105 48.9249 45.1231 48.2752C46.2984 47.6743 47.1893 47.0093 47.7944 46.2815C48.8735 44.9849 49.4159 43.2645 49.4159 41.1272C49.4159 39.0526 48.8791 37.2709 47.807 35.7833C46.028 33.3629 43.0026 32.1193 38.7349 32.0552H21.8122V67.0662H37.5889C39.3665 67.0648 41.0186 66.9059 42.5369 66.5894ZM28.7957 38.1339H36.4122C38.0894 38.1339 39.4683 38.3151 40.5502 38.6818C41.8049 39.2032 42.4323 40.2795 42.4323 41.9107C42.4323 43.3844 41.9569 44.4091 41.0089 44.9863C40.0622 45.5635 38.827 45.8535 37.3059 45.8535H28.7971V38.1339H28.7957ZM28.7957 60.9847V51.652H37.4132C38.919 51.6673 40.0831 51.8639 40.9141 52.2445C42.4003 52.9249 43.1434 54.1755 43.1434 55.9963C43.1434 58.1489 42.3766 59.6072 40.843 60.3685C39.9995 60.7798 38.8158 60.9847 37.2989 60.9847H28.7957Z" fill="white"/>
<path d="M56.4595 64.7589C59.0932 66.8836 62.1339 67.9446 65.5776 67.9446C69.7532 67.9446 73.0003 66.6871 75.3174 64.1678C76.8106 62.5826 77.6471 61.0224 77.8298 59.4888H70.9173C70.5158 60.2487 70.0501 60.8412 69.5231 61.2692C68.5584 62.0625 67.3064 62.4585 65.7644 62.4585C64.3103 62.4585 63.0666 62.1336 62.0335 61.4839C60.3326 60.4383 59.4306 58.6175 59.326 56.0201H78.1811C78.2145 53.7852 78.1406 52.0731 77.958 50.8825C77.6443 48.8525 76.9556 47.068 75.8946 45.5302C74.7207 43.786 73.2275 42.5075 71.4193 41.7003C69.6166 40.8917 67.5866 40.4888 65.3308 40.4888C61.5386 40.4888 58.4518 41.685 56.0733 44.0788C53.6948 46.4699 52.507 49.9093 52.507 54.3945C52.5098 59.1793 53.8259 62.6341 56.4595 64.7589ZM61.2946 47.5476C62.2524 46.5633 63.5992 46.0697 65.335 46.0697C66.9327 46.0697 68.2726 46.5354 69.3517 47.4639C70.4308 48.3938 71.0317 49.7602 71.1544 51.5545H59.4905C59.7387 49.8689 60.3396 48.5333 61.2946 47.5476Z" fill="white"/>
<path d="M72.5011 34.0671H57.2863V37.6H72.5011V34.0671Z" fill="white"/>
</svg>
