<svg width="100" height="100" viewBox="0 0 100 100" fill="none" xmlns="http://www.w3.org/2000/svg">
<mask id="mask0_966_2100" style="mask-type:luminance" maskUnits="userSpaceOnUse" x="0" y="0" width="100" height="100">
<path d="M100 0H0V100H100V0Z" fill="white"/>
</mask>
<g mask="url(#mask0_966_2100)">
<path d="M0 49.8837C0 22.3256 22.3256 0 49.8837 0C77.4419 0 99.7674 22.3256 99.7674 49.8837C99.7674 77.4419 77.4419 99.7674 49.8837 99.7674C22.3256 99.7093 0 77.3837 0 49.8837Z" fill="#5865F2"/>
<path d="M72.3255 29.593C68.0813 27.6744 63.6627 26.279 59.0697 25.5232C58.4883 26.5697 57.8488 27.9069 57.3837 29.0116C52.4999 28.2558 47.5581 28.2558 42.6744 29.0116C42.1511 27.7906 41.5697 26.6278 40.9302 25.5232C36.3372 26.279 31.8604 27.6744 27.6744 29.6511C19.3023 42.1511 17.0348 54.3023 18.1395 66.3371C23.0813 69.9999 28.5465 72.7906 34.4186 74.5348C35.7558 72.7325 36.9186 70.872 37.9069 68.8953C35.9883 68.1976 34.186 67.3255 32.4418 66.279C32.9069 65.9302 33.3139 65.5813 33.779 65.2325C44.0697 70.1162 56.0465 70.1162 66.3372 65.2325C66.8023 65.5813 67.2092 65.9302 67.6744 66.279C65.9302 67.3255 64.0697 68.1976 62.1511 68.8953C63.1395 70.872 64.3023 72.7325 65.6395 74.5348C71.5116 72.7325 77.0348 69.9999 81.9185 66.3371C83.1976 52.3837 79.593 40.2906 72.3255 29.593ZM39.3023 58.8953C36.1046 58.8953 33.5465 55.9883 33.5465 52.4418C33.5465 48.8953 36.1046 45.9302 39.3023 45.9302C42.5581 45.9302 45.1162 48.8371 45.1162 52.4418C45.0581 55.9883 42.5581 58.8953 39.3023 58.8953ZM60.6976 58.8953C57.4999 58.8953 54.9418 55.9883 54.9418 52.4418C54.9418 48.8953 57.4999 45.9302 60.6976 45.9302C63.9534 45.9302 66.5116 48.8371 66.4534 52.4418C66.3953 56.0464 63.8953 58.8953 60.6976 58.8953Z" fill="white"/>
</g>
</svg>
