<svg width="100" height="100" viewBox="0 0 100 100" fill="none" xmlns="http://www.w3.org/2000/svg">
<path d="M50 100C22.3852 100 0 77.6134 0 50C0 22.3852 22.3852 0 50 0C77.6148 0 100 22.3866 100 50C100.001 77.6134 77.6148 100 50 100Z" fill="#117BB8"/>
<path d="M37.6751 38.8533H27.3273V72.2833H37.6751V38.8533Z" fill="white"/>
<path d="M32.4526 34.4756C35.8321 34.4756 38.5717 31.7109 38.5717 28.3049C38.5717 24.8989 35.8335 22.137 32.4526 22.137C29.0717 22.137 26.3335 24.8989 26.3335 28.3049C26.3335 31.7123 29.0717 34.4756 32.4526 34.4756Z" fill="white"/>
<path d="M54.2175 54.7346C54.2175 50.0348 56.3799 47.2352 60.522 47.2352C64.3268 47.2352 66.156 49.9232 66.156 54.7346C66.156 59.5501 66.156 72.2833 66.156 72.2833H76.4549C76.4549 72.2833 76.4549 60.0716 76.4549 51.1166C76.4549 42.1617 71.3786 37.8328 64.2919 37.8328C57.2011 37.8328 54.2175 43.3566 54.2175 43.3566V38.8533H44.2908V72.2833H54.2175C54.2175 72.2833 54.2175 59.8847 54.2175 54.7346Z" fill="white"/>
</svg>
