<svg width="100" height="100" viewBox="0 0 100 100" fill="none" xmlns="http://www.w3.org/2000/svg">
<path d="M50 100C22.3852 100 0 77.6134 0 50C0 22.3852 22.3852 0 50 0C77.6148 0 100 22.3852 100 50C100.001 77.6148 77.6148 100 50 100Z" fill="url(#paint0_radial_966_2326)"/>
<path d="M50 27.5241C57.3209 27.5241 58.1867 27.552 61.0782 27.6844C63.7509 27.8057 65.2022 28.2533 66.1698 28.6283C67.4497 29.126 68.3629 29.72 69.3221 30.6792C70.2813 31.6384 70.8753 32.5516 71.373 33.8314C71.7494 34.7976 72.1955 36.249 72.3168 38.923C72.4479 41.8132 72.4772 42.6804 72.4772 50.0013C72.4772 57.3222 72.4493 58.1894 72.3168 61.0796C72.1941 63.7536 71.748 65.205 71.373 66.1698C70.8753 67.4496 70.2813 68.3628 69.3221 69.3221C68.3629 70.2813 67.4497 70.8752 66.1698 71.3729C65.2036 71.7493 63.7509 72.1955 61.0782 72.3168C58.1881 72.4478 57.3209 72.4757 50 72.4757C42.679 72.4757 41.8133 72.4478 38.9217 72.3168C36.249 72.1955 34.7977 71.7479 33.8315 71.3729C32.5516 70.8752 31.6384 70.2813 30.6792 69.3221C29.72 68.3628 29.1261 67.4496 28.6283 66.1698C28.2533 65.2036 27.8072 63.7522 27.6845 61.0796C27.5534 58.1894 27.5256 57.3222 27.5256 50.0013C27.5256 42.6804 27.5534 41.8146 27.6845 38.923C27.8072 36.2504 28.2533 34.799 28.6283 33.8314C29.1261 32.5516 29.72 31.6384 30.6792 30.6792C31.6384 29.72 32.5516 29.126 33.8315 28.6283C34.7977 28.2533 36.249 27.8057 38.9217 27.6844C41.8133 27.552 42.6804 27.5241 50 27.5241ZM50 22.5845C42.5536 22.5845 41.6208 22.6165 38.6958 22.749C35.7778 22.8828 33.7855 23.3457 32.0413 24.0233C30.2386 24.7246 28.7092 25.6615 27.1854 27.1853C25.6615 28.7092 24.7232 30.2386 24.0233 32.0413C23.3458 33.7854 22.8815 35.7777 22.749 38.6958C22.6152 41.6208 22.5845 42.5535 22.5845 49.9985C22.5845 57.4435 22.6166 58.3776 22.749 61.3026C22.8815 64.2207 23.3458 66.213 24.0233 67.9571C24.7232 69.7598 25.6601 71.2893 27.1854 72.8131C28.7092 74.337 30.2386 75.2752 32.0413 75.9751C33.7855 76.6527 35.7778 77.1156 38.6958 77.2494C41.6208 77.3833 42.5536 77.414 50 77.414C57.445 77.414 58.3791 77.3833 61.3027 77.2494C64.2207 77.1156 66.2131 76.6527 67.9572 75.9751C69.7599 75.2739 71.2893 74.337 72.8132 72.8131C74.337 71.2893 75.2753 69.7598 75.9752 67.9571C76.6528 66.213 77.1157 64.2207 77.2495 61.3026C77.382 58.3776 77.414 57.4449 77.414 49.9985C77.414 42.5521 77.382 41.6194 77.2495 38.6958C77.1157 35.7777 76.6528 33.7854 75.9752 32.0413C75.2739 30.2386 74.337 28.7092 72.8132 27.1853C71.2893 25.6615 69.7599 24.7232 67.9572 24.0233C66.2131 23.3457 64.2207 22.8828 61.3027 22.749C58.3791 22.6165 57.4464 22.5845 50 22.5845Z" fill="white"/>
<path d="M49.9999 35.9214C42.2245 35.9214 35.9213 42.2245 35.9213 50C35.9213 57.7754 42.2245 64.0785 49.9999 64.0785C57.7753 64.0785 64.0784 57.7754 64.0784 50C64.0784 42.2245 57.7753 35.9214 49.9999 35.9214ZM49.9999 59.1389C44.9529 59.1389 40.8609 55.0469 40.8609 50C40.8609 44.953 44.9515 40.861 49.9999 40.861C55.0469 40.861 59.1374 44.9516 59.1374 50C59.1388 55.0469 55.0469 59.1389 49.9999 59.1389Z" fill="white"/>
<path d="M67.9252 35.365C67.9252 37.1816 66.453 38.6553 64.6349 38.6553C62.8183 38.6553 61.3446 37.1816 61.3446 35.365C61.3446 33.5484 62.8183 32.0747 64.6349 32.0747C66.4516 32.0747 67.9252 33.5484 67.9252 35.365Z" fill="white"/>
<defs>
<radialGradient id="paint0_radial_966_2326" cx="0" cy="0" r="1" gradientUnits="userSpaceOnUse" gradientTransform="translate(-2.50229 100.332) scale(184.892 184.892)">
<stop stop-color="#F5EC53"/>
<stop offset="0.2412" stop-color="#E48244"/>
<stop offset="0.3974" stop-color="#D15767"/>
<stop offset="0.4888" stop-color="#C84278"/>
<stop offset="1" stop-color="#192CFA"/>
</radialGradient>
</defs>
</svg>
