<svg width="100" height="100" viewBox="0 0 100 100" fill="none" xmlns="http://www.w3.org/2000/svg">
<path d="M50 100C22.3852 100 0 77.6134 0 50C0 22.3852 22.3866 0 50 0C77.6148 0 100 22.3866 100 50C100 77.6148 77.6134 100 50 100Z" fill="#EB4C89"/>
<path d="M49.9986 18.126C32.3955 18.126 18.1245 32.3969 18.1245 50.0014C18.1245 67.6045 32.3955 81.8741 49.9986 81.8741C67.6031 81.8741 81.8741 67.6031 81.8741 50.0014C81.8741 32.3969 67.6031 18.126 49.9986 18.126ZM49.9986 23.6693C56.0425 23.6693 61.6025 25.7383 66.0514 29.175C62.8517 33.3018 58.4335 36.5656 52.8065 38.9483C50.1088 34.0059 47.0248 29.1861 43.5421 24.5058C45.6097 23.9788 47.7679 23.6693 49.9986 23.6693ZM38.1201 26.533C41.6571 31.1617 44.7885 35.9326 47.5142 40.8262C41.0576 42.7265 33.3533 43.7025 24.4458 43.7638C26.2862 36.2337 31.3568 29.9724 38.1201 26.533ZM23.6678 49.9987C23.6678 49.7714 23.6985 49.5483 23.7041 49.3211C33.9249 49.3058 42.7432 48.1318 50.1297 45.8077C50.7487 47.068 51.3426 48.3368 51.9101 49.6125C42.9356 52.4176 35.538 58.1686 29.7661 66.8238C25.9641 62.2606 23.6678 56.3938 23.6678 49.9987ZM49.9986 76.3308C43.9074 76.3308 38.3083 74.2339 33.8413 70.7471C39.0695 62.5408 45.7491 57.2024 54.0209 54.7375C56.483 61.1661 58.2955 67.7788 59.4499 74.5518C56.5081 75.6867 53.3321 76.3308 49.9986 76.3308ZM64.614 71.8861C63.4512 65.6373 61.7447 59.5294 59.5154 53.5678C64.4968 52.8651 69.9816 53.0464 75.9795 54.0892C74.8195 61.4896 70.5951 67.882 64.614 71.8861ZM57.3906 48.3214C56.7437 46.8255 56.0717 45.3351 55.3537 43.8586C61.4882 41.2013 66.418 37.5945 70.0917 33.0174C73.6734 37.2515 75.925 42.6289 76.2569 48.5152C69.4156 47.3957 63.1264 47.3343 57.3906 48.3214Z" fill="white"/>
</svg>
